<?xml version="1.0" encoding="utf-8"?>
<!-- Generator: Adobe Illustrator 25.0.1, SVG Export Plug-In . SVG Version: 6.00 Build 0)  -->
<svg version="1.1" id="Layer_1" xmlns="http://www.w3.org/2000/svg" xmlns:xlink="http://www.w3.org/1999/xlink" x="0px" y="0px"
	 viewBox="0 0 1080 1080" style="enable-background:new 0 0 1080 1080;" xml:space="preserve">
<style type="text/css">
	.st0{stroke:#000000;stroke-width:3.8328;stroke-miterlimit:10;}
	.st1{fill:#FFFFFF;stroke:#FFFFFF;stroke-width:7.2914;stroke-miterlimit:10;}
</style>
<rect x="2.43" y="2.25" class="st0" width="1080" height="1080"/>
<path class="st1" d="M965.24,795.28l5.25-11.02l-120.9-81.12l111.26,27.03h35.03l2.64-9.02l-400.3-234.33L358.21,269.48l37.67-47.38
	l57.29-15.38l8.41-20l-46.45-36.4l-101.58,4l-14.89-13.02h-41.17l-65.7,18.04L93.66,309.57l51.7,53.07l-11.69,127.84l255.21,290.25
	v12.53v10.02l-11.84,6l-169.51,94.14l3.53,13.02h297.79v-11.02l-47.28-58.09l43.78-82.1l123.95,24.01l359.58,63.62l9.64-11.53
	l-128.76-76.09L965.24,795.28z M256.89,899.75l75.91-33.39l30.95,29.39L256.89,899.75z M380.69,887.07l-38.25-19.29l46.5-37.46
	L380.69,887.07z M931.76,768.36l-52.96-3.12L737.49,658.71L931.76,768.36z M950.86,712.48l-116.73-24.04l-67.83-17.55l80.52-14.57
	L950.86,712.48z M832.1,641.21l-84.09,13.85L642.89,536.87L832.1,641.21z M721.73,656.08L536.88,677.1l60.45-155.25L721.73,656.08z
	 M522.22,670.71l0.96-161.88h58.98L522.22,670.71z M417.55,166.6l24.96,26.79l-40.29,9.51L417.55,166.6z M400.01,165.23
	l-16.85,41.17l-27.6-31.06L400.01,165.23z M370.45,222.1l-26.28,35.38l-3.5-70.76L370.45,222.1z M549.16,466.78L200.97,358.12
	l128.96-75.82L549.16,466.78z M318.2,170.68v72.09l-97.47-76.18L318.2,170.68z M207.25,180.7l101.59,85.34l-137.21,81.07
	L207.25,180.7z M121.41,304.88l59.76-100.19l-28.81,130.41L121.41,304.88z M177.09,379.46l359.79,103.69l-368.74-4.29L177.09,379.46
	z M503.89,508.78l-0.58,168.32l-84.66-3.01L191.77,505.58L503.89,508.78z M402.88,821.29l31.53,31.07l-45.53,45.06L402.88,821.29z
	 M397.62,899.75l47.32-33.39l37.65,33.39H397.62z M447.54,830.31l-28.89-31.03l52.56-23.06L447.54,830.31z M415.14,772.65
	L217.17,558.92l254.05,188.28L415.14,772.65z M491.89,736l-60.31-42.53h79.35L491.89,736z M510.68,745.76l18.69-45.63l77.31,64.09
	L510.68,745.76z M560.55,699.11l157.68-18l-82.94,76.11L560.55,699.11z M744.47,681.1l43.72,45.04L655.44,770.9L744.47,681.1z
	 M885.1,807.63l-187.91-26.04l96.35-33.94L885.1,807.63z"/>
</svg>
